<svg xmlns="http://www.w3.org/2000/svg" xmlns:xlink="http://www.w3.org/1999/xlink" version="1.1" x="0px" y="0px" viewBox="0 0 100 125" enableBackground="new 0 0 100 100" xml:space="preserve"><path d="M49.207,36.63c-11.138,0-17.4,5.804-20.906,11.795h2.289c4.189-6.498,10.44-9.795,18.617-9.795  c8.833,0,15.716,3.921,20.457,11.655c2.649,4.321,3.864,8.699,4.322,10.72H26.022c0.196-1.452,0.883-5.41,2.894-9.59h-2.155  c-2.349,5.245-2.792,9.899-2.801,10.006c-0.01,0.115,0,0.228,0.028,0.334c-0.021,0.08-0.031,0.164-0.031,0.25c0,0.552,0.448,1,1,1  h50.25c0.292,0,0.569-0.127,0.759-0.349c0.19-0.222,0.274-0.515,0.229-0.803C76.157,61.601,72.051,36.63,49.207,36.63z"/></svg>